HIERARCHY
ROOT Hips
{
	OFFSET 0.000000 0.000000 0.000000
	CHANNELS 6 Xposition Yposition Zposition Zrotation Yrotation Xrotation 
	JOINT LHipJoint
	{
		OFFSET 0.000000 0.000000 0.000000
		CHANNELS 3 Zrotation Yrotation Xrotation
		JOINT LeftUpLeg
		{
			OFFSET 1.363060 -1.794630 0.839290
			CHANNELS 3 Zrotation Yrotation Xrotation
			JOINT LeftLeg
			{
				OFFSET 2.448110 -6.726130 0.000000
				CHANNELS 3 Zrotation Yrotation Xrotation
				JOINT LeftFoot
				{
					OFFSET 2.562200 -7.039590 0.000000
					CHANNELS 3 Zrotation Yrotation Xrotation
					JOINT LeftToeBase
					{
						OFFSET 0.157640 -0.433110 2.322550
						CHANNELS 3 Zrotation Yrotation Xrotation
						End Site
						{
							OFFSET 0.000000 0.000000 0.000000
						}
					}
				}
			}
		}
	}
	JOINT RHipJoint
	{
		OFFSET 0.000000 0.000000 0.000000
		CHANNELS 3 Zrotation Yrotation Xrotation
		JOINT RightUpLeg
		{
			OFFSET -1.305520 -1.794630 0.839290
			CHANNELS 3 Zrotation Yrotation Xrotation
			JOINT RightLeg
			{
				OFFSET -2.542530 -6.985550 0.000000
				CHANNELS 3 Zrotation Yrotation Xrotation
				JOINT RightFoot
				{
					OFFSET -2.568260 -7.056230 0.000000
					CHANNELS 3 Zrotation Yrotation Xrotation
					JOINT RightToeBase
					{
						OFFSET -0.164730 -0.452590 2.363150
						CHANNELS 3 Zrotation Yrotation Xrotation
						End Site
						{
							OFFSET 0.000000 0.000000 0.000000
						}
					}
				}
			}
		}
	}
	JOINT LowerBack
	{
		OFFSET 0.000000 0.000000 0.000000
		CHANNELS 3 Zrotation Yrotation Xrotation
		JOINT Spine
		{
			OFFSET 0.028270 2.035590 -0.193380
			CHANNELS 3 Zrotation Yrotation Xrotation
			JOINT Spine1
			{
				OFFSET 0.056720 2.048850 -0.042750
				CHANNELS 3 Zrotation Yrotation Xrotation
				JOINT Neck
				{
					OFFSET 0.000000 0.000000 0.000000
					CHANNELS 3 Zrotation Yrotation Xrotation
					JOINT Neck1
					{
						OFFSET -0.054170 1.746240 0.172020
						CHANNELS 3 Zrotation Yrotation Xrotation
						JOINT Head
						{
							OFFSET 0.104070 1.761360 -0.123970
							CHANNELS 3 Zrotation Yrotation Xrotation
							End Site
							{
								OFFSET 0.000000 0.000000 0.000000
							}
						}
					}
				}
				JOINT LeftShoulder
				{
					OFFSET 0.000000 0.000000 0.000000
					CHANNELS 3 Zrotation Yrotation Xrotation
					JOINT LeftArm
					{
						OFFSET 3.362410 1.200890 -0.311210
						CHANNELS 3 Zrotation Yrotation Xrotation
						JOINT LeftForeArm
						{
							OFFSET 4.983000 -0.000000 -0.000000
							CHANNELS 3 Zrotation Yrotation Xrotation
							JOINT LeftHand
							{
								OFFSET 3.483560 -0.000000 -0.000000
								CHANNELS 3 Zrotation Yrotation Xrotation
								JOINT LeftFingerBase
								{
									OFFSET 0.000000 0.000000 0.000000
									CHANNELS 3 Zrotation Yrotation Xrotation
									JOINT LeftHandIndex1
									{
										OFFSET 0.715260 -0.000000 -0.000000
										CHANNELS 3 Zrotation Yrotation Xrotation
										End Site
										{
											OFFSET 0.000000 0.000000 0.000000
										}
									}
								}
								JOINT LThumb
								{
									OFFSET 0.000000 0.000000 0.000000
									CHANNELS 3 Zrotation Yrotation Xrotation
									End Site
									{
										OFFSET 0.000000 0.000000 0.000000
									}
								}
							}
						}
					}
				}
				JOINT RightShoulder
				{
					OFFSET 0.000000 0.000000 0.000000
					CHANNELS 3 Zrotation Yrotation Xrotation
					JOINT RightArm
					{
						OFFSET -3.136600 1.374050 -0.404650
						CHANNELS 3 Zrotation Yrotation Xrotation
						JOINT RightForeArm
						{
							OFFSET -5.241900 -0.000000 -0.000000
							CHANNELS 3 Zrotation Yrotation Xrotation
							JOINT RightHand
							{
								OFFSET -3.444170 -0.000000 -0.000000
								CHANNELS 3 Zrotation Yrotation Xrotation
								JOINT RightFingerBase
								{
									OFFSET 0.000000 0.000000 0.000000
									CHANNELS 3 Zrotation Yrotation Xrotation
									JOINT RightHandIndex1
									{
										OFFSET -0.622530 -0.000000 -0.000000
										CHANNELS 3 Zrotation Yrotation Xrotation
										End Site
										{
											OFFSET 0.000000 0.000000 0.000000
										}
									}
								}
								JOINT RThumb
								{
									OFFSET 0.000000 0.000000 0.000000
									CHANNELS 3 Zrotation Yrotation Xrotation
									End Site
									{
										OFFSET 0.000000 0.000000 0.000000
									}
								}
							}
						}
					}
				}
			}
		}
	}
}
MOTION
Frames: 4
Frame Time: 0.008333
0.407041 16.381421 -3.661431 -1.600022 -6.707023 0.384713 -0.119812 -0.928382 -0.670810 -11.805409 -0.743522 -30.426601 6.872015 16.304512 50.412011 0.333529 1.895960 -11.513166 0.197600 -2.862600 -7.896300 -1.683180 0.593877 -0.418208 18.385018 8.898478 -29.758682 -8.532236 -17.531872 55.786985 -1.126422 1.379384 -14.256854 -0.137500 -2.389800 6.584200 0.183231 -0.681419 8.569789 1.494365 -0.583342 -1.403223 1.915131 -0.813350 5.202868 -1.855207 0.193514 -7.211673 1.403508 1.130712 34.032483 -0.326200 1.086900 13.375200 9.520399 4.596954 0.223345 -95.688944 -20.617190 27.621737 7.758941 -17.163579 -1.225765 -0.378455 -0.613011 -16.616309 31.117715 -9.161360 -5.238100 -7.125000 0.000000 0.000000 3.415300 19.971900 -2.047000 -8.097969 -3.504620 0.142723 93.490941 13.850185 17.079165 -9.282436 20.194697 -1.921552 1.268439 0.747669 34.951464 -27.422489 -22.724921 12.268100 7.125000 0.000000 0.000000 1.438400 -56.845700 -0.417600 
0.413577 16.428701 -3.666231 -1.556313 -7.005857 0.944498 -0.139471 -0.956485 -0.687122 -11.859993 -0.617911 -30.697409 6.672455 16.164282 49.746951 0.320240 1.845693 -11.146844 0.171900 -2.670700 -7.363300 -1.649011 0.621137 -0.420432 18.289372 9.250664 -29.823733 -8.225202 -17.353867 54.810029 -1.074590 1.126854 -14.145328 -0.155800 -2.543100 7.009100 0.221036 -0.726919 8.623297 1.493217 -0.640520 -1.417254 1.878696 -0.838749 5.152242 -1.828800 0.283692 -7.232359 1.303651 1.289438 33.899357 -0.357000 1.145000 13.334400 9.512352 4.590418 0.221016 -95.414722 -20.824089 27.074880 7.603319 -16.900912 -1.177817 -0.386373 -0.607182 -16.069880 31.096251 -9.118289 -5.210000 -7.125000 0.000000 0.000000 3.404600 20.020100 -2.036900 -8.095522 -3.498229 0.145350 93.542888 13.737996 16.780643 -9.192260 20.053400 -1.887751 1.271143 0.741669 35.194940 -27.400453 -22.669844 12.231200 7.125000 0.000000 0.000000 1.445800 -56.780700 -0.417500 
0.420317 16.474144 -3.671133 -1.496872 -7.289302 1.507829 -0.157746 -0.985836 -0.704775 -11.933071 -0.513703 -30.980905 6.479250 16.026548 49.101141 0.308071 1.794061 -10.780511 0.149600 -2.492400 -6.868600 -1.617132 0.648468 -0.423077 18.164801 9.588187 -29.924250 -7.943153 -17.185717 53.904885 -1.022943 0.885624 -14.020071 -0.169900 -2.655000 7.319700 0.249399 -0.776014 8.663629 1.490127 -0.703544 -1.432064 1.840217 -0.866638 5.105831 -1.818587 0.376483 -7.244843 1.205634 1.453703 33.755605 -0.382500 1.203300 13.284700 9.503373 4.584912 0.218977 -95.138572 -21.024390 26.593534 7.468176 -16.672593 -1.137481 -0.392629 -0.602190 -15.605857 31.043882 -9.063377 -5.168300 -7.125000 0.000000 0.000000 3.372500 20.085600 -2.012700 -8.095271 -3.493363 0.148438 93.585539 13.599750 16.490651 -9.115142 19.935088 -1.859245 1.272865 0.738836 35.327227 -27.383916 -22.633395 12.206100 7.125000 0.000000 0.000000 1.453100 -56.738000 -0.418100 
0.427567 16.517952 -3.675830 -1.420959 -7.570276 2.060878 -0.175146 -1.015347 -0.722496 -12.026685 -0.418676 -31.259818 6.291549 15.890318 48.471424 0.296479 1.745260 -10.420973 0.129900 -2.322800 -6.398700 -1.588908 0.676040 -0.427139 18.009457 9.922695 -30.068023 -7.692850 -17.034486 53.096205 -0.969675 0.664475 -13.841939 -0.180000 -2.733100 7.536500 0.266604 -0.824589 8.698780 1.485425 -0.766576 -1.444395 1.802786 -0.895291 5.071097 -1.816897 0.469349 -7.262879 1.098412 1.623462 33.609707 -0.409100 1.261800 13.234900 9.494169 4.580731 0.217075 -94.871406 -21.232947 26.157882 7.351916 -16.475270 -1.104334 -0.397047 -0.597539 -15.255614 30.914800 -9.037010 -5.128900 -7.125000 0.000000 0.000000 3.282500 20.124600 -1.955900 -8.095874 -3.489473 0.152174 93.615499 13.448363 16.199319 -9.044296 19.828416 -1.833188 1.274402 0.738406 35.383066 -27.379510 -22.616471 12.196700 7.125000 0.000000 0.000000 1.452900 -56.720100 -0.417400 
